<svg xmlns="http://www.w3.org/2000/svg" xmlns:xlink="http://www.w3.org/1999/xlink" version="1.1" data-diagram-type="SEQUENCE" style="width:1734px;height:1856px;background:#FFFFFF;" width="1734px" height="1856px" viewBox="0 0 1734 1856" zoomAndPan="magnify" preserveAspectRatio="none" contentStyleType="text/css"><?plantuml 1.2026.8?><defs/><g font-family="sans-serif" lengthAdjust="spacing"><g class="title" data-source-line="4"><text x="615.757" y="29.533" fill="#000" font-size="14" textLength="501.19" font-weight="700">Mise à jour du statut d'une commande (Livreur) et décrémentation du stock</text></g><rect x="245.88" y="303.977" width="394.271" height="58.703" fill="none" style="stroke:#94A3B8;stroke-width:1.5;"/><rect x="13" y="728.547" width="1701.704" height="1015" fill="none" style="stroke:#94A3B8;stroke-width:1.5;"/><rect x="32" y="821.602" width="1657.704" height="857.758" fill="none" style="stroke:#94A3B8;stroke-width:1.5;"/><rect x="948.357" y="972.008" width="716.347" height="428.188" fill="none" style="stroke:#94A3B8;stroke-width:1.5;"/><rect x="967.357" y="1047.711" width="672.347" height="338.484" fill="none" style="stroke:#94A3B8;stroke-width:1.5;"/><rect x="986.357" y="1110.414" width="628.347" height="121.891" fill="none" style="stroke:#94A3B8;stroke-width:1.5;"/><rect x="986.357" y="1300.492" width="228.692" height="71.703" fill="none" style="stroke:#94A3B8;stroke-width:1.5;"/><g><title>Livreur</title><rect x="68.896" y="126.219" width="8" height="1641.328" fill="#000" fill-opacity="0"/><line x1="72.396" y1="126.219" x2="72.396" y2="1767.547" style="stroke:#181818;stroke-width:0.5;stroke-dasharray:5,5;"/></g><g><title>Navigateur</title><rect x="258.38" y="126.219" width="8" height="1641.328" fill="#000" fill-opacity="0"/><line x1="261.88" y1="126.219" x2="261.88" y2="1767.547" style="stroke:#181818;stroke-width:0.5;stroke-dasharray:5,5;"/></g><g><title>Vue livreur</title><rect x="506.224" y="126.219" width="8" height="1641.328" fill="#000" fill-opacity="0"/><line x1="509.724" y1="126.219" x2="509.724" y2="1767.547" style="stroke:#181818;stroke-width:0.5;stroke-dasharray:5,5;"/></g><g><title>D.corateur</title><rect x="620.651" y="126.219" width="8" height="1641.328" fill="#000" fill-opacity="0"/><line x1="624.151" y1="126.219" x2="624.151" y2="1767.547" style="stroke:#181818;stroke-width:0.5;stroke-dasharray:5,5;"/></g><g><title>Table des transitions</title><rect x="802.361" y="126.219" width="8" height="1641.328" fill="#000" fill-opacity="0"/><line x1="805.861" y1="126.219" x2="805.861" y2="1767.547" style="stroke:#181818;stroke-width:0.5;stroke-dasharray:5,5;"/></g><g><title>_decrementer_stock</title><rect x="998.857" y="126.219" width="8" height="1641.328" fill="#000" fill-opacity="0"/><line x1="1002.357" y1="126.219" x2="1002.357" y2="1767.547" style="stroke:#181818;stroke-width:0.5;stroke-dasharray:5,5;"/></g><g><title>Email de livraison</title><rect x="1285.015" y="126.219" width="8" height="1641.328" fill="#000" fill-opacity="0"/><line x1="1288.515" y1="126.219" x2="1288.515" y2="1767.547" style="stroke:#181818;stroke-width:0.5;stroke-dasharray:5,5;"/></g><g><title>SMTP Gmail</title><rect x="1402.149" y="126.219" width="8" height="1641.328" fill="#000" fill-opacity="0"/><line x1="1405.649" y1="126.219" x2="1405.649" y2="1767.547" style="stroke:#181818;stroke-width:0.5;stroke-dasharray:5,5;"/></g><g><title>Article .</title><rect x="1499.445" y="126.219" width="8" height="1641.328" fill="#000" fill-opacity="0"/><line x1="1502.945" y1="126.219" x2="1502.945" y2="1767.547" style="stroke:#181818;stroke-width:0.5;stroke-dasharray:5,5;"/></g><g><title>PostgreSQL</title><rect x="1595.204" y="126.219" width="8" height="1641.328" fill="#000" fill-opacity="0"/><line x1="1598.704" y1="126.219" x2="1598.704" y2="1767.547" style="stroke:#181818;stroke-width:0.5;stroke-dasharray:5,5;"/></g><text x="48" y="123.143" fill="#000" font-size="14" textLength="42.793">Livreur</text><ellipse cx="72.396" cy="57.109" rx="8" ry="8" fill="#CBD5E1" style="stroke:#1E293B;stroke-width:0.5;"/><path d="M72.396,65.109 L72.396,92.109 M59.396,73.109 L85.396,73.109 M72.396,92.109 L59.396,107.109 M72.396,92.109 L85.396,107.109" style="stroke:#1E293B;stroke-width:0.5;" fill="none"/><text x="225.028" y="123.143" fill="#000" font-size="14" textLength="67.703">Navigateur</text><path d="M241.38,80.609 L241.38,104.609 M241.38,92.609 L258.38,92.609" style="stroke:#181818;stroke-width:0.5;" fill="none"/><ellipse cx="270.38" cy="92.609" rx="12" ry="12" fill="#E2E2F0" style="stroke:#181818;stroke-width:0.5;"/><text x="473.265" y="105.533" fill="#000" font-size="14" textLength="66.917">Vue livreur</text><text x="456.931" y="123.143" fill="#000" font-size="14" textLength="99.586">livreur_views.py</text><ellipse cx="509.724" cy="75" rx="12" ry="12" fill="#E2E2F0" style="stroke:#181818;stroke-width:0.5;"/><polygon points="505.724,63,511.724,58,509.724,63,511.724,68,505.724,63" fill="#181818" style="stroke:#181818;stroke-width:1;stroke-linejoin:miter;stroke-miterlimit:10;"/><text x="586.523" y="105.533" fill="#000" font-size="14" textLength="69.255">Décorateur</text><text x="572.517" y="123.143" fill="#000" font-size="14" textLength="97.269">livreur_required</text><ellipse cx="624.151" cy="75" rx="12" ry="12" fill="#E2E2F0" style="stroke:#181818;stroke-width:0.5;"/><polygon points="620.151,63,626.151,58,624.151,63,626.151,68,620.151,63" fill="#181818" style="stroke:#181818;stroke-width:1;stroke-linejoin:miter;stroke-miterlimit:10;"/><text x="738.271" y="105.533" fill="#000" font-size="14" textLength="129.179">Table des transitions</text><text x="685.785" y="123.143" fill="#000" font-size="14" textLength="234.151">STATUTS_TRANSITIONS_LIVREUR</text><ellipse cx="805.861" cy="75" rx="12" ry="12" fill="#E2E2F0" style="stroke:#181818;stroke-width:0.5;"/><polygon points="801.861,63,807.861,58,805.861,63,807.861,68,801.861,63" fill="#181818" style="stroke:#181818;stroke-width:1;stroke-linejoin:miter;stroke-miterlimit:10;"/><text x="935.937" y="123.143" fill="#000" font-size="14" textLength="126.841">_decrementer_stock</text><ellipse cx="1002.357" cy="92.609" rx="12" ry="12" fill="#E2E2F0" style="stroke:#181818;stroke-width:0.5;"/><polygon points="998.357,80.609,1004.357,75.609,1002.357,80.609,1004.357,85.609,998.357,80.609" fill="#181818" style="stroke:#181818;stroke-width:1;stroke-linejoin:miter;stroke-miterlimit:10;"/><text x="1230.66" y="105.533" fill="#000" font-size="14" textLength="109.71">Email de livraison</text><text x="1224.049" y="123.143" fill="#000" font-size="14" textLength="122.931">email_livraison.html</text><ellipse cx="1288.515" cy="75" rx="12" ry="12" fill="#E2E2F0" style="stroke:#181818;stroke-width:0.5;"/><polygon points="1284.515,63,1290.515,58,1288.515,63,1290.515,68,1284.515,63" fill="#181818" style="stroke:#181818;stroke-width:1;stroke-linejoin:miter;stroke-miterlimit:10;"/><text x="1362.98" y="123.143" fill="#000" font-size="14" textLength="79.338">SMTP Gmail</text><ellipse cx="1405.649" cy="92.609" rx="12" ry="12" fill="#E2E2F0" style="stroke:#181818;stroke-width:0.5;"/><polygon points="1401.649,80.609,1407.649,75.609,1405.649,80.609,1407.649,85.609,1401.649,80.609" fill="#181818" style="stroke:#181818;stroke-width:1;stroke-linejoin:miter;stroke-miterlimit:10;"/><text x="1476.607" y="105.533" fill="#000" font-size="14" textLength="46.676">Article /</text><text x="1458.318" y="123.143" fill="#000" font-size="14" textLength="83.255">ArticleVariant</text><ellipse cx="1502.945" cy="75" rx="12" ry="12" fill="#E2E2F0" style="stroke:#181818;stroke-width:0.5;"/><line x1="1490.945" y1="89" x2="1514.945" y2="89" style="stroke:#181818;stroke-width:0.5;"/><text x="1557.573" y="123.143" fill="#000" font-size="14" textLength="76.262">PostgreSQL</text><path d="M1580.704,72.609 C1580.704,62.609 1598.704,62.609 1598.704,62.609 C1598.704,62.609 1616.704,62.609 1616.704,72.609 L1616.704,98.609 C1616.704,108.609 1598.704,108.609 1598.704,108.609 C1598.704,108.609 1580.704,108.609 1580.704,98.609 L1580.704,72.609" style="stroke:#181818;stroke-width:0.5;" fill="#E2E2F0"/><path d="M1580.704,72.609 C1580.704,82.609 1598.704,82.609 1598.704,82.609 C1598.704,82.609 1616.704,82.609 1616.704,72.609" style="stroke:#181818;stroke-width:0.5;" fill="none"/><text x="48" y="1782.08" fill="#000" font-size="14" textLength="42.793">Livreur</text><ellipse cx="72.396" cy="1793.656" rx="8" ry="8" fill="#CBD5E1" style="stroke:#1E293B;stroke-width:0.5;"/><path d="M72.396,1801.656 L72.396,1828.656 M59.396,1809.656 L85.396,1809.656 M72.396,1828.656 L59.396,1843.656 M72.396,1828.656 L85.396,1843.656" style="stroke:#1E293B;stroke-width:0.5;" fill="none"/><text x="225.028" y="1782.08" fill="#000" font-size="14" textLength="67.703">Navigateur</text><path d="M241.38,1789.156 L241.38,1813.156 M241.38,1801.156 L258.38,1801.156" style="stroke:#181818;stroke-width:0.5;" fill="none"/><ellipse cx="270.38" cy="1801.156" rx="12" ry="12" fill="#E2E2F0" style="stroke:#181818;stroke-width:0.5;"/><text x="473.265" y="1782.08" fill="#000" font-size="14" textLength="66.917">Vue livreur</text><text x="456.931" y="1799.689" fill="#000" font-size="14" textLength="99.586">livreur_views.py</text><ellipse cx="509.724" cy="1818.766" rx="12" ry="12" fill="#E2E2F0" style="stroke:#181818;stroke-width:0.5;"/><polygon points="505.724,1806.766,511.724,1801.766,509.724,1806.766,511.724,1811.766,505.724,1806.766" fill="#181818" style="stroke:#181818;stroke-width:1;stroke-linejoin:miter;stroke-miterlimit:10;"/><text x="586.523" y="1782.08" fill="#000" font-size="14" textLength="69.255">Décorateur</text><text x="572.517" y="1799.689" fill="#000" font-size="14" textLength="97.269">livreur_required</text><ellipse cx="624.151" cy="1818.766" rx="12" ry="12" fill="#E2E2F0" style="stroke:#181818;stroke-width:0.5;"/><polygon points="620.151,1806.766,626.151,1801.766,624.151,1806.766,626.151,1811.766,620.151,1806.766" fill="#181818" style="stroke:#181818;stroke-width:1;stroke-linejoin:miter;stroke-miterlimit:10;"/><text x="738.271" y="1782.08" fill="#000" font-size="14" textLength="129.179">Table des transitions</text><text x="685.785" y="1799.689" fill="#000" font-size="14" textLength="234.151">STATUTS_TRANSITIONS_LIVREUR</text><ellipse cx="805.861" cy="1818.766" rx="12" ry="12" fill="#E2E2F0" style="stroke:#181818;stroke-width:0.5;"/><polygon points="801.861,1806.766,807.861,1801.766,805.861,1806.766,807.861,1811.766,801.861,1806.766" fill="#181818" style="stroke:#181818;stroke-width:1;stroke-linejoin:miter;stroke-miterlimit:10;"/><text x="935.937" y="1782.08" fill="#000" font-size="14" textLength="126.841">_decrementer_stock</text><ellipse cx="1002.357" cy="1801.156" rx="12" ry="12" fill="#E2E2F0" style="stroke:#181818;stroke-width:0.5;"/><polygon points="998.357,1789.156,1004.357,1784.156,1002.357,1789.156,1004.357,1794.156,998.357,1789.156" fill="#181818" style="stroke:#181818;stroke-width:1;stroke-linejoin:miter;stroke-miterlimit:10;"/><text x="1230.66" y="1782.08" fill="#000" font-size="14" textLength="109.71">Email de livraison</text><text x="1224.049" y="1799.689" fill="#000" font-size="14" textLength="122.931">email_livraison.html</text><ellipse cx="1288.515" cy="1818.766" rx="12" ry="12" fill="#E2E2F0" style="stroke:#181818;stroke-width:0.5;"/><polygon points="1284.515,1806.766,1290.515,1801.766,1288.515,1806.766,1290.515,1811.766,1284.515,1806.766" fill="#181818" style="stroke:#181818;stroke-width:1;stroke-linejoin:miter;stroke-miterlimit:10;"/><text x="1362.98" y="1782.08" fill="#000" font-size="14" textLength="79.338">SMTP Gmail</text><ellipse cx="1405.649" cy="1801.156" rx="12" ry="12" fill="#E2E2F0" style="stroke:#181818;stroke-width:0.5;"/><polygon points="1401.649,1789.156,1407.649,1784.156,1405.649,1789.156,1407.649,1794.156,1401.649,1789.156" fill="#181818" style="stroke:#181818;stroke-width:1;stroke-linejoin:miter;stroke-miterlimit:10;"/><text x="1476.607" y="1782.08" fill="#000" font-size="14" textLength="46.676">Article /</text><text x="1458.318" y="1799.689" fill="#000" font-size="14" textLength="83.255">ArticleVariant</text><ellipse cx="1502.945" cy="1818.766" rx="12" ry="12" fill="#E2E2F0" style="stroke:#181818;stroke-width:0.5;"/><line x1="1490.945" y1="1832.766" x2="1514.945" y2="1832.766" style="stroke:#181818;stroke-width:0.5;"/><text x="1557.573" y="1782.08" fill="#000" font-size="14" textLength="76.262">PostgreSQL</text><path d="M1580.704,1795.156 C1580.704,1785.156 1598.704,1785.156 1598.704,1785.156 C1598.704,1785.156 1616.704,1785.156 1616.704,1795.156 L1616.704,1821.156 C1616.704,1831.156 1598.704,1831.156 1598.704,1831.156 C1598.704,1831.156 1580.704,1831.156 1580.704,1821.156 L1580.704,1795.156" style="stroke:#181818;stroke-width:0.5;" fill="#E2E2F0"/><path d="M1580.704,1795.156 C1580.704,1805.156 1598.704,1805.156 1598.704,1805.156 C1598.704,1805.156 1616.704,1805.156 1616.704,1795.156" style="stroke:#181818;stroke-width:0.5;" fill="none"/><rect x="10" y="155.395" width="1713.704" height="3" fill="#EEE" style="stroke:#EEE;stroke-width:1;"/><line x1="10" y1="155.395" x2="1723.704" y2="155.395" style="stroke:#000;stroke-width:1;"/><line x1="10" y1="158.395" x2="1723.704" y2="158.395" style="stroke:#000;stroke-width:1;"/><rect x="805.928" y="144.219" width="121.847" height="24.352" fill="#EEE" style="stroke:#000;stroke-width:2;"/><text x="811.928" y="161.714" fill="#000" font-size="13" textLength="104.235" font-weight="700">Contrôle d'accès</text><polygon points="249.88,196.922,259.88,200.922,249.88,204.922,253.88,200.922" fill="#334155" style="stroke:#334155;stroke-width:1;stroke-linejoin:miter;stroke-miterlimit:10;"/><line x1="72.396" y1="200.922" x2="255.88" y2="200.922" style="stroke:#334155;stroke-width:1;"/><text x="79.396" y="196.065" fill="#000" font-size="13" textLength="117.038">/livreur/commandes/</text><polygon points="497.724,227.273,507.724,231.273,497.724,235.273,501.724,231.273" fill="#334155" style="stroke:#334155;stroke-width:1;stroke-linejoin:miter;stroke-miterlimit:10;"/><line x1="261.88" y1="231.273" x2="503.724" y2="231.273" style="stroke:#334155;stroke-width:1;"/><text x="268.88" y="226.417" fill="#000" font-size="13" textLength="26.724">GET</text><polygon points="612.151,257.625,622.151,261.625,612.151,265.625,616.151,261.625" fill="#334155" style="stroke:#334155;stroke-width:1;stroke-linejoin:miter;stroke-miterlimit:10;"/><line x1="509.724" y1="261.625" x2="618.151" y2="261.625" style="stroke:#334155;stroke-width:1;"/><text x="516.724" y="256.769" fill="#000" font-size="13" textLength="90.321">livreur_required</text><polygon points="1586.704,287.977,1596.704,291.977,1586.704,295.977,1590.704,291.977" fill="#334155" style="stroke:#334155;stroke-width:1;stroke-linejoin:miter;stroke-miterlimit:10;"/><line x1="624.151" y1="291.977" x2="1592.704" y2="291.977" style="stroke:#334155;stroke-width:1;"/><text x="631.151" y="287.12" fill="#000" font-size="13" textLength="241.23">hasattr(user, 'livreur_profile') et est_actif ?</text><path d="M245.88,303.977 L306.051,303.977 L306.051,312.328 L296.051,322.328 L245.88,322.328 L245.88,303.977" style="stroke:#94A3B8;stroke-width:1.5;" fill="#EEE"/><rect x="245.88" y="303.977" width="394.271" height="58.703" fill="none" style="stroke:#94A3B8;stroke-width:1.5;"/><text x="260.88" y="318.472" fill="#000" font-size="13" textLength="15.171" font-weight="700">alt</text><text x="321.051" y="317.396" fill="#000" font-size="11" textLength="177.262" font-weight="700">[Non livreur ou compte désactivé]</text><polygon points="272.88,350.68,262.88,354.68,272.88,358.68,268.88,354.68" fill="#334155" style="stroke:#334155;stroke-width:1;stroke-linejoin:miter;stroke-miterlimit:10;"/><line x1="266.88" y1="354.68" x2="623.151" y2="354.68" style="stroke:#334155;stroke-width:1;stroke-dasharray:2,2;"/><text x="278.88" y="349.823" fill="#000" font-size="13" textLength="139.775">Message d'accès refusé</text><polygon points="1586.704,395.031,1596.704,399.031,1586.704,403.031,1590.704,399.031" fill="#334155" style="stroke:#334155;stroke-width:1;stroke-linejoin:miter;stroke-miterlimit:10;"/><line x1="624.151" y1="399.031" x2="1592.704" y2="399.031" style="stroke:#334155;stroke-width:1;"/><text x="631.151" y="394.175" fill="#000" font-size="13" textLength="256.103">SELECT commandes WHERE livreur = user</text><polygon points="635.151,425.383,625.151,429.383,635.151,433.383,631.151,429.383" fill="#334155" style="stroke:#334155;stroke-width:1;stroke-linejoin:miter;stroke-miterlimit:10;"/><line x1="629.151" y1="429.383" x2="1597.704" y2="429.383" style="stroke:#334155;stroke-width:1;stroke-dasharray:2,2;"/><text x="641.151" y="424.526" fill="#000" font-size="13" textLength="135.846">Commandes assignées</text><polygon points="272.88,455.734,262.88,459.734,272.88,463.734,268.88,459.734" fill="#334155" style="stroke:#334155;stroke-width:1;stroke-linejoin:miter;stroke-miterlimit:10;"/><line x1="266.88" y1="459.734" x2="623.151" y2="459.734" style="stroke:#334155;stroke-width:1;stroke-dasharray:2,2;"/><text x="278.88" y="454.878" fill="#000" font-size="13" textLength="130.787">Liste filtrable par statut</text><rect x="10" y="488.91" width="1713.704" height="3" fill="#EEE" style="stroke:#EEE;stroke-width:1;"/><line x1="10" y1="488.91" x2="1723.704" y2="488.91" style="stroke:#000;stroke-width:1;"/><line x1="10" y1="491.91" x2="1723.704" y2="491.91" style="stroke:#000;stroke-width:1;"/><rect x="789.79" y="477.734" width="154.125" height="24.352" fill="#EEE" style="stroke:#000;stroke-width:2;"/><text x="795.79" y="495.229" fill="#000" font-size="13" textLength="136.513" font-weight="700">Changement de statut</text><polygon points="249.88,530.438,259.88,534.438,249.88,538.438,253.88,534.438" fill="#334155" style="stroke:#334155;stroke-width:1;stroke-linejoin:miter;stroke-miterlimit:10;"/><line x1="72.396" y1="534.438" x2="255.88" y2="534.438" style="stroke:#334155;stroke-width:1;"/><text x="79.396" y="529.581" fill="#000" font-size="13" textLength="165.483">Cliquer sur le nouveau statut</text><polygon points="497.724,560.789,507.724,564.789,497.724,568.789,501.724,564.789" fill="#334155" style="stroke:#334155;stroke-width:1;stroke-linejoin:miter;stroke-miterlimit:10;"/><line x1="261.88" y1="564.789" x2="503.724" y2="564.789" style="stroke:#334155;stroke-width:1;"/><text x="268.88" y="559.933" fill="#000" font-size="13" textLength="220.365">POST /livreur/commandes/&lt;id>/statut/</text><polygon points="612.151,591.141,622.151,595.141,612.151,599.141,616.151,595.141" fill="#334155" style="stroke:#334155;stroke-width:1;stroke-linejoin:miter;stroke-miterlimit:10;"/><line x1="509.724" y1="595.141" x2="618.151" y2="595.141" style="stroke:#334155;stroke-width:1;"/><text x="516.724" y="590.284" fill="#000" font-size="13" textLength="90.321">livreur_required</text><polygon points="1586.704,621.492,1596.704,625.492,1586.704,629.492,1590.704,625.492" fill="#334155" style="stroke:#334155;stroke-width:1;stroke-linejoin:miter;stroke-miterlimit:10;"/><line x1="624.151" y1="625.492" x2="1592.704" y2="625.492" style="stroke:#334155;stroke-width:1;"/><text x="631.151" y="620.636" fill="#000" font-size="13" textLength="306.027">get_object_or_404(Commande, livreur=request.user)</text><polygon points="635.151,651.844,625.151,655.844,635.151,659.844,631.151,655.844" fill="#334155" style="stroke:#334155;stroke-width:1;stroke-linejoin:miter;stroke-miterlimit:10;"/><line x1="629.151" y1="655.844" x2="1597.704" y2="655.844" style="stroke:#334155;stroke-width:1;stroke-dasharray:2,2;"/><text x="641.151" y="650.987" fill="#000" font-size="13" textLength="67.196">Commande</text><polygon points="793.861,682.195,803.861,686.195,793.861,690.195,797.861,686.195" fill="#334155" style="stroke:#334155;stroke-width:1;stroke-linejoin:miter;stroke-miterlimit:10;"/><line x1="624.151" y1="686.195" x2="799.861" y2="686.195" style="stroke:#334155;stroke-width:1;"/><text x="631.151" y="681.339" fill="#000" font-size="13" textLength="114.88">T[commande.statut]</text><polygon points="520.724,712.547,510.724,716.547,520.724,720.547,516.724,716.547" fill="#334155" style="stroke:#334155;stroke-width:1;stroke-linejoin:miter;stroke-miterlimit:10;"/><line x1="514.724" y1="716.547" x2="804.861" y2="716.547" style="stroke:#334155;stroke-width:1;stroke-dasharray:2,2;"/><text x="526.724" y="711.69" fill="#000" font-size="13" textLength="127.169">Transitions autorisées</text><path d="M13,728.547 L73.171,728.547 L73.171,736.898 L63.171,746.898 L13,746.898 L13,728.547" style="stroke:#94A3B8;stroke-width:1.5;" fill="#EEE"/><rect x="13" y="728.547" width="1701.704" height="1015" fill="none" style="stroke:#94A3B8;stroke-width:1.5;"/><text x="28" y="743.042" fill="#000" font-size="13" textLength="15.171" font-weight="700">alt</text><text x="88.171" y="741.966" fill="#000" font-size="11" textLength="94.735" font-weight="700">[Transition valide]</text><polygon points="1586.704,775.25,1596.704,779.25,1586.704,783.25,1590.704,779.25" fill="#334155" style="stroke:#334155;stroke-width:1;stroke-linejoin:miter;stroke-miterlimit:10;"/><line x1="509.724" y1="779.25" x2="1592.704" y2="779.25" style="stroke:#334155;stroke-width:1;"/><text x="516.724" y="774.394" fill="#000" font-size="13" textLength="184.952">UPDATE commande SET statut</text><polygon points="272.88,805.602,262.88,809.602,272.88,813.602,268.88,809.602" fill="#334155" style="stroke:#334155;stroke-width:1;stroke-linejoin:miter;stroke-miterlimit:10;"/><line x1="266.88" y1="809.602" x2="508.724" y2="809.602" style="stroke:#334155;stroke-width:1;stroke-dasharray:2,2;"/><text x="278.88" y="804.745" fill="#000" font-size="13" textLength="159.517">Message "Statut mis à jour"</text><path d="M32,821.602 L97.211,821.602 L97.211,829.953 L87.211,839.953 L32,839.953 L32,821.602" style="stroke:#94A3B8;stroke-width:1.5;" fill="#EEE"/><rect x="32" y="821.602" width="1657.704" height="857.758" fill="none" style="stroke:#94A3B8;stroke-width:1.5;"/><text x="47" y="836.097" fill="#000" font-size="13" textLength="20.211" font-weight="700">opt</text><text x="112.211" y="835.021" fill="#000" font-size="11" textLength="128.063" font-weight="700">[Nouveau statut = livree]</text><rect x="10" y="871.129" width="1713.704" height="3" fill="#EEE" style="stroke:#EEE;stroke-width:1;"/><line x1="10" y1="871.129" x2="1723.704" y2="871.129" style="stroke:#000;stroke-width:1;"/><line x1="10" y1="874.129" x2="1723.704" y2="874.129" style="stroke:#000;stroke-width:1;"/><rect x="780.389" y="859.953" width="172.926" height="24.352" fill="#EEE" style="stroke:#000;stroke-width:2;"/><text x="786.389" y="877.448" fill="#000" font-size="13" textLength="155.314" font-weight="700">Décrémentation du stock</text><polygon points="990.357,912.656,1000.357,916.656,990.357,920.656,994.357,916.656" fill="#334155" style="stroke:#334155;stroke-width:1;stroke-linejoin:miter;stroke-miterlimit:10;"/><line x1="509.724" y1="916.656" x2="996.357" y2="916.656" style="stroke:#334155;stroke-width:1;"/><text x="516.724" y="911.8" fill="#000" font-size="13" textLength="190.747">_decrementer_stock(commande)</text><line x1="1002.357" y1="947.008" x2="1044.357" y2="947.008" style="stroke:#334155;stroke-width:1;"/><line x1="1044.357" y1="947.008" x2="1044.357" y2="960.008" style="stroke:#334155;stroke-width:1;"/><line x1="1003.357" y1="960.008" x2="1044.357" y2="960.008" style="stroke:#334155;stroke-width:1;"/><polygon points="1013.357,956.008,1003.357,960.008,1013.357,964.008,1009.357,960.008" fill="#334155" style="stroke:#334155;stroke-width:1;stroke-linejoin:miter;stroke-miterlimit:10;"/><text x="1009.357" y="942.151" fill="#000" font-size="13" textLength="197.082">Découper commande.items sur ";"</text><path d="M948.357,972.008 L1020.792,972.008 L1020.792,980.359 L1010.792,990.359 L948.357,990.359 L948.357,972.008" style="stroke:#94A3B8;stroke-width:1.5;" fill="#EEE"/><rect x="948.357" y="972.008" width="716.347" height="428.188" fill="none" style="stroke:#94A3B8;stroke-width:1.5;"/><text x="963.357" y="986.503" fill="#000" font-size="13" textLength="27.435" font-weight="700">loop</text><text x="1035.792" y="985.427" fill="#000" font-size="11" textLength="242.054" font-weight="700">[Pour chaque ligne "nom:id xQuantité (taille)"]</text><line x1="1002.357" y1="1022.711" x2="1044.357" y2="1022.711" style="stroke:#334155;stroke-width:1;"/><line x1="1044.357" y1="1022.711" x2="1044.357" y2="1035.711" style="stroke:#334155;stroke-width:1;"/><line x1="1003.357" y1="1035.711" x2="1044.357" y2="1035.711" style="stroke:#334155;stroke-width:1;"/><polygon points="1013.357,1031.711,1003.357,1035.711,1013.357,1039.711,1009.357,1035.711" fill="#334155" style="stroke:#334155;stroke-width:1;stroke-linejoin:miter;stroke-miterlimit:10;"/><text x="1009.357" y="1017.854" fill="#000" font-size="13" textLength="264.792">Expression régulière :(\d+)\s+x(\d+)\s+\((.+?)\)</text><path d="M967.357,1047.711 L1027.528,1047.711 L1027.528,1056.063 L1017.528,1066.063 L967.357,1066.063 L967.357,1047.711" style="stroke:#94A3B8;stroke-width:1.5;" fill="#EEE"/><rect x="967.357" y="1047.711" width="672.347" height="338.484" fill="none" style="stroke:#94A3B8;stroke-width:1.5;"/><text x="982.357" y="1062.206" fill="#000" font-size="13" textLength="15.171" font-weight="700">alt</text><text x="1042.528" y="1061.13" fill="#000" font-size="11" textLength="213.361" font-weight="700">[Taille renseignée (article vestimentaire)]</text><polygon points="1586.704,1094.414,1596.704,1098.414,1586.704,1102.414,1590.704,1098.414" fill="#334155" style="stroke:#334155;stroke-width:1;stroke-linejoin:miter;stroke-miterlimit:10;"/><line x1="1002.357" y1="1098.414" x2="1592.704" y2="1098.414" style="stroke:#334155;stroke-width:1;"/><text x="1009.357" y="1093.558" fill="#000" font-size="13" textLength="307.772">SELECT variante (article, taille) WHERE stock >= qté</text><path d="M986.357,1110.414 L1046.528,1110.414 L1046.528,1118.766 L1036.528,1128.766 L986.357,1128.766 L986.357,1110.414" style="stroke:#94A3B8;stroke-width:1.5;" fill="#EEE"/><rect x="986.357" y="1110.414" width="628.347" height="121.891" fill="none" style="stroke:#94A3B8;stroke-width:1.5;"/><text x="1001.357" y="1124.909" fill="#000" font-size="13" textLength="15.171" font-weight="700">alt</text><text x="1061.528" y="1123.833" fill="#000" font-size="11" textLength="93.527" font-weight="700">[Variante trouvée]</text><polygon points="1586.704,1157.117,1596.704,1161.117,1586.704,1165.117,1590.704,1161.117" fill="#334155" style="stroke:#334155;stroke-width:1;stroke-linejoin:miter;stroke-miterlimit:10;"/><line x1="1002.357" y1="1161.117" x2="1592.704" y2="1161.117" style="stroke:#334155;stroke-width:1;"/><text x="1009.357" y="1156.261" fill="#000" font-size="13" textLength="240.221">UPDATE variante SET stock = stock - qté</text><line x1="986.357" y1="1170.117" x2="1614.704" y2="1170.117" style="stroke:#94A3B8;stroke-width:1;stroke-dasharray:2,2;"/><text x="991.357" y="1183.536" fill="#000" font-size="11" textLength="113.078" font-weight="700">[Variante introuvable]</text><line x1="1002.357" y1="1211.305" x2="1044.357" y2="1211.305" style="stroke:#334155;stroke-width:1;"/><line x1="1044.357" y1="1211.305" x2="1044.357" y2="1224.305" style="stroke:#334155;stroke-width:1;"/><line x1="1003.357" y1="1224.305" x2="1044.357" y2="1224.305" style="stroke:#334155;stroke-width:1;"/><polygon points="1013.357,1220.305,1003.357,1224.305,1013.357,1228.305,1009.357,1224.305" fill="#334155" style="stroke:#334155;stroke-width:1;stroke-linejoin:miter;stroke-miterlimit:10;"/><text x="1009.357" y="1206.448" fill="#000" font-size="13" textLength="150.16">Log "Variante introuvable"</text><line x1="967.357" y1="1247.305" x2="1639.704" y2="1247.305" style="stroke:#94A3B8;stroke-width:1;stroke-dasharray:2,2;"/><text x="972.357" y="1260.724" fill="#000" font-size="11" textLength="152.813" font-weight="700">[Sans taille (catégorie Autre)]</text><polygon points="1586.704,1284.492,1596.704,1288.492,1586.704,1292.492,1590.704,1288.492" fill="#334155" style="stroke:#334155;stroke-width:1;stroke-linejoin:miter;stroke-miterlimit:10;"/><line x1="1002.357" y1="1288.492" x2="1592.704" y2="1288.492" style="stroke:#334155;stroke-width:1;"/><text x="1009.357" y="1283.636" fill="#000" font-size="13" textLength="355.082">UPDATE article SET stock = stock - qté WHERE stock >= qté</text><path d="M986.357,1300.492 L1046.528,1300.492 L1046.528,1308.844 L1036.528,1318.844 L986.357,1318.844 L986.357,1300.492" style="stroke:#94A3B8;stroke-width:1.5;" fill="#EEE"/><rect x="986.357" y="1300.492" width="228.692" height="71.703" fill="none" style="stroke:#94A3B8;stroke-width:1.5;"/><text x="1001.357" y="1314.987" fill="#000" font-size="13" textLength="15.171" font-weight="700">alt</text><text x="1061.528" y="1313.911" fill="#000" font-size="11" textLength="137.521" font-weight="700">[Aucune ligne mise à jour]</text><line x1="1002.357" y1="1351.195" x2="1044.357" y2="1351.195" style="stroke:#334155;stroke-width:1;"/><line x1="1044.357" y1="1351.195" x2="1044.357" y2="1364.195" style="stroke:#334155;stroke-width:1;"/><line x1="1003.357" y1="1364.195" x2="1044.357" y2="1364.195" style="stroke:#334155;stroke-width:1;"/><polygon points="1013.357,1360.195,1003.357,1364.195,1013.357,1368.195,1009.357,1364.195" fill="#334155" style="stroke:#334155;stroke-width:1;stroke-linejoin:miter;stroke-miterlimit:10;"/><text x="1009.357" y="1346.339" fill="#000" font-size="13" textLength="129.188">Log "Stock insuffisant"</text><polygon points="520.724,1432.547,510.724,1436.547,520.724,1440.547,516.724,1436.547" fill="#334155" style="stroke:#334155;stroke-width:1;stroke-linejoin:miter;stroke-miterlimit:10;"/><line x1="514.724" y1="1436.547" x2="1001.357" y2="1436.547" style="stroke:#334155;stroke-width:1;stroke-dasharray:2,2;"/><text x="526.724" y="1431.69" fill="#000" font-size="13" textLength="180.629">Terminé (transaction atomique)</text><rect x="10" y="1465.723" width="1713.704" height="3" fill="#EEE" style="stroke:#EEE;stroke-width:1;"/><line x1="10" y1="1465.723" x2="1723.704" y2="1465.723" style="stroke:#000;stroke-width:1;"/><line x1="10" y1="1468.723" x2="1723.704" y2="1468.723" style="stroke:#000;stroke-width:1;"/><rect x="794.125" y="1454.547" width="145.454" height="24.352" fill="#EEE" style="stroke:#000;stroke-width:2;"/><text x="800.125" y="1472.042" fill="#000" font-size="13" textLength="127.842" font-weight="700">Notification au client</text><polygon points="1276.515,1507.25,1286.515,1511.25,1276.515,1515.25,1280.515,1511.25" fill="#334155" style="stroke:#334155;stroke-width:1;stroke-linejoin:miter;stroke-miterlimit:10;"/><line x1="509.724" y1="1511.25" x2="1282.515" y2="1511.25" style="stroke:#334155;stroke-width:1;"/><text x="516.724" y="1506.394" fill="#000" font-size="13" textLength="227.602">Rendre le template email_livraison.html</text><polygon points="520.724,1537.602,510.724,1541.602,520.724,1545.602,516.724,1541.602" fill="#334155" style="stroke:#334155;stroke-width:1;stroke-linejoin:miter;stroke-miterlimit:10;"/><line x1="514.724" y1="1541.602" x2="1287.515" y2="1541.602" style="stroke:#334155;stroke-width:1;stroke-dasharray:2,2;"/><text x="526.724" y="1536.745" fill="#000" font-size="13" textLength="88.15">Contenu HTML</text><polygon points="1393.649,1567.953,1403.649,1571.953,1393.649,1575.953,1397.649,1571.953" fill="#334155" style="stroke:#334155;stroke-width:1;stroke-linejoin:miter;stroke-miterlimit:10;"/><line x1="509.724" y1="1571.953" x2="1399.649" y2="1571.953" style="stroke:#334155;stroke-width:1;"/><text x="516.724" y="1567.097" fill="#000" font-size="13" textLength="243.337">send_mail("Votre commande a été livrée")</text><polygon points="520.724,1598.305,510.724,1602.305,520.724,1606.305,516.724,1602.305" fill="#334155" style="stroke:#334155;stroke-width:1;stroke-linejoin:miter;stroke-miterlimit:10;"/><line x1="514.724" y1="1602.305" x2="1404.649" y2="1602.305" style="stroke:#334155;stroke-width:1;stroke-dasharray:2,2;"/><text x="526.724" y="1597.448" fill="#000" font-size="13" textLength="97.906">fail_silently=True</text><path d="M514.724,1615.305 L514.724,1674.305 L704.724,1674.305 L704.724,1625.305 L694.724,1615.305 L514.724,1615.305" style="stroke:#181818;stroke-width:0.5;" fill="#FEFFDD"/><path d="M694.724,1615.305 L694.724,1625.305 L704.724,1625.305 L694.724,1615.305" style="stroke:#181818;stroke-width:0.5;" fill="#FEFFDD"/><text x="520.724" y="1633.8" fill="#000" font-size="13" textLength="140.912">Le client peut désormais</text><text x="520.724" y="1650.151" fill="#000" font-size="13" textLength="169.057">laisser un avis sur les articles</text><text x="520.724" y="1666.503" fill="#000" font-size="13" textLength="114.175">de cette commande</text><line x1="13" y1="1694.359" x2="1714.704" y2="1694.359" style="stroke:#94A3B8;stroke-width:1;stroke-dasharray:2,2;"/><text x="18" y="1707.778" fill="#000" font-size="11" textLength="104.511" font-weight="700">[Transition invalide]</text><polygon points="272.88,1731.547,262.88,1735.547,272.88,1739.547,268.88,1735.547" fill="#334155" style="stroke:#334155;stroke-width:1;stroke-linejoin:miter;stroke-miterlimit:10;"/><line x1="266.88" y1="1735.547" x2="508.724" y2="1735.547" style="stroke:#334155;stroke-width:1;stroke-dasharray:2,2;"/><text x="278.88" y="1730.69" fill="#000" font-size="13" textLength="223.844">Message "Transition de statut invalide"</text><?plantuml-src ZLRDRjj64BxlKmpOWoN4Ft5i0x5REP0isZ4WAuv9guUg4DRaIjg4scNsHubHz5rwZEzz0xrOPvUaI2ioqfCepZV_yyrm1wxcDEEQBg0dhU5VB8CzY2nVSaWPP7ofADTI03Emu9h1wX_u9As2r88sClbCTY32_mc3CxWtt9aop2fzu5JnORBaxAlUpn_FpgetDayHCz666gjRxLsOf2nHRC64OMhYhVgtJ2pb8xvX2ygpoJgKLfiGmqt6uEQ7WD2YWNJ72WQ9N2oem1nQWy9ls-MGhfuIjNfolgZXcDSw3w8_Sv5JXPNGSvhAhrpCO4eppPeIXWKIcEnV1A2hbFnw8JEfu9UZe-F3anDyEU1JrfCgPMfJSakLuGdFgJ0_1z3ayqn9Az8I5Bu9trw-TauJ8zKp_SFmpUbHRotQrBpezK_2GnJtgQ4FLByGtLgwgNzvU7boUOg8AtoRFrC-FUuUzTwIlmcXpZK4PQK3e1e6vC5PeUeHWY5TyfcV2oyQaaGAesG6mSWMGuQYiTWS6GyUrU0-DaygRwS6Asm9Lopru7uDZka3ZaZAD1X5XUQksteiehWRtyVH9Bxh3gFh-Fh3C9eChaTtuVsTjn3N5duSIu-8QaJe9lCPJyPYOrhtvsQHURsmrejkubkuSa0lkUbU3mYwuGPhrNL3W94VZ4NvEAAAuqnuQFSk9cdPAWXkfJOpnQAFWoBx7Y6T3bmuDwj_NVOxD4bMtpLqEcG0U-SmH9PMp3oe6A8FoD09HoYy2cCoSd_w-6UpnAJl9JqKpIdotAYMrKpjmaw5p9MSyepjUAunRIOu67mAxmZD30oHRYKGf7K4pGrpZDGEjLmzkJ64lJBC6wOrdJLoK6ngDOAOQ0OIXOFm8bwpNSFlxyExSEsd0ov2Wj2zCgcBDP9gpMTYzSGqgTqEkCQWC0cS6ZT0oFjohnIrdLCnypFXsbukd6PrBpAtGr47dQEwa7R9QBMQwZhVVeZYRPtuZQVd1mNuu7yrOiRCH3vyOWd-gCdnw-DMbU1kfTPnQjYCVLUAzhPQaC9WZA_YFwfWzeim_YInnxkeuvf9G2rIdcjVFj_UMWXBF2be5M2qZlF-jj-DmtehHs5S5SN3DheUH4LfyUPK6puWY9IvcwDcJR75Fa_d3h0Lq7zfnRi-EOmFAa9dM-vE5L_R8wCAwJUFpR6lw-fmmnRQjpduDV3eJCeSRjqjIkRqYrziCpn4WP2BCvx2ju-MEewldg1baFePQnTw3J_XjrnX1LpKcCBCPdprNU5fROtJL-snVlMjUXYtMlklthN7xTA2Ru0tYZmHcXM33IrQRfCbzf_xak3yL4gbuoQFbiMkgJLteOor95PHoVCEV36UiBNxKQMAEyuYczbQslHJpi7QJp47lZlbxzvpqmmlS6sR2s_TKNFJlAlVGCxmfcm11xKzN1yDon4ERPaYj1AAdcSurWowrcmlL9b0LTYNulzfkResSPyfnOmqFwrUp2lojhZGTZh5pooy2DkIAf-gtwWcBrCBBlpqEQQwdOjZHerSk8tL9XL_XX9NDayAxY3DaeoxTTSaJuZcxj03ZYQM08cGPtYLOTlfyqhXEWXtcvYmy3w-6TJst054eKQJ4sUZ5Omabh_U5XHMJwwepZPELb0qngjLbgVEjyRZ8qpss8cLBGP4I0nCyTdSW9pYnqHHfG6hqigPzL-5MYhqh4jvXe-uBC5Y1PPSbzjSLrslO1XPmeof0wrAxzsIeWl4prbZEtBHt8-RYwy1h2zCfHBuw_SV?></g></svg>